# xmcd CD database file
#
# Track frame offsets:
#	151
#	21745
#	43396
#	60743
#	73303
#
# Disc length: 1247 seconds
#
# Revision: 0
# Processed by: cddbd v1.4PL0 Copyright (c) Steve Scherf et al.
# Submitted via: CDex 1.51
#
DISCID=5104dd05
DTITLE=Habana Club - Salsa Pa Ti
DYEAR=1998
DGENRE=Salsa
TTITLE0=La Fiesta (Samy y Tatto)
TTITLE1=Ojitos Bellos (Conflicto)
TTITLE2=Serpiente Mala (Aruxa)
TTITLE3=Buena pa`Gozá (Grupo Klamato)
TTITLE4=La Tanga (Grupo Klamato)
EXTD=YEAR: 1998
EXTT0=
EXTT1=
EXTT2=
EXTT3=
EXTT4=
PLAYORDER=
